<?xml version="1.0" encoding="utf-8"?>
<!-- Generator: Adobe Illustrator 26.0.3, SVG Export Plug-In . SVG Version: 6.00 Build 0)  -->
<svg version="1.1" id="Calque_1" xmlns="http://www.w3.org/2000/svg" xmlns:xlink="http://www.w3.org/1999/xlink" x="0px" y="0px"
	 viewBox="0 0 875.5 929" style="enable-background:new 0 0 875.5 929;" xml:space="preserve">
<style type="text/css">
	.st0{fill-rule:evenodd;clip-rule:evenodd;fill:url(#SVGID_1_);}
</style>
<linearGradient id="SVGID_1_" gradientUnits="userSpaceOnUse" x1="-244.3435" y1="849.3849" x2="-243.3574" y2="848.3849" gradientTransform="matrix(658.4548 266.033 267.9012 -663.0788 -66408.4609 628201.125)">
	<stop  offset="0" style="stop-color:#FF8F71"/>
	<stop  offset="1" style="stop-color:#FF3E55"/>
</linearGradient>
<path class="st0" d="M730.5,624.9L607.7,929L303.5,806.1L389,594.7c20.7-51.2,79-75.9,130.2-55.3L730.5,624.9z M225.5,419.4
	c84,33.9,124.6,129.5,90.6,213.5s-129.5,124.6-213.5,90.6S-21.9,594,12,510.1S141.5,385.5,225.5,419.4z M875.5,266.9L752.7,571
	l-211.4-85.4c-51.2-20.7-75.9-79-55.3-130.2l0,0L571.4,144L875.5,266.9z M521.5,122.9l-85.4,211.4c-20.7,51.2-79,75.9-130.2,55.3
	L94.5,304.1L217.4,0L521.5,122.9z"/>
</svg>
