<?xml version="1.0" encoding="utf-8"?>
<!-- Generator: Adobe Illustrator 26.0.3, SVG Export Plug-In . SVG Version: 6.00 Build 0)  -->
<svg version="1.1" id="Calque_1" xmlns="http://www.w3.org/2000/svg" xmlns:xlink="http://www.w3.org/1999/xlink" x="0px" y="0px"
	 viewBox="0 0 498 359" style="enable-background:new 0 0 498 359;" xml:space="preserve">
<style type="text/css">
	.st0{opacity:8.000000e-02;fill-rule:evenodd;clip-rule:evenodd;fill:#2D2E40;enable-background:new    ;}
	.st1{opacity:0.5;fill:none;stroke:#2D2E40;enable-background:new    ;}
	.st2{opacity:0.25;fill:none;stroke:#2D2E40;enable-background:new    ;}
	.st3{fill:#535353;}
	.st4{fill:#1D1D25;}
	.st5{fill:url(#b_00000135686582334727354190000017363048566947581838_);}
	.st6{filter:url(#Adobe_OpacityMaskFilter);}
	.st7{fill-rule:evenodd;clip-rule:evenodd;fill:#FFFFFF;}
	.st8{mask:url(#d_00000170272314122707547500000005666997708083190677_);fill:#F9F6F6;}
	.st9{filter:url(#Adobe_OpacityMaskFilter_00000078761371371471357100000013720086607196792255_);}
	.st10{mask:url(#d_00000142869039791181054510000014379198392263925920_);}
	.st11{fill:#FFFFFF;}
	.st12{fill:#E7E7E7;}
	.st13{opacity:9.800000e-02;}
	.st14{fill:#4A5166;}
	.st15{filter:url(#Adobe_OpacityMaskFilter_00000173843666720585684920000005155985795735206043_);}
	.st16{mask:url(#f_00000110430759924205166460000014514761958523949751_);fill:#2F2F47;}
	.st17{fill:#2F2F47;}
</style>
<g>
	<g transform="translate(86 17)">
		<path class="st0" d="M163.5,276L163.5,276c61.6,0,111.5-49.9,111.5-111.5l0,0C275,102.9,225.1,53,163.5,53l0,0
			C101.9,53,52,102.9,52,164.5l0,0C52,226.1,101.9,276,163.5,276z"/>
		<path class="st1" d="M163,288.5L163,288.5c69.3,0,125.5-56.2,125.5-125.5l0,0c0-69.3-56.2-125.5-125.5-125.5l0,0
			C93.7,37.5,37.5,93.7,37.5,163l0,0C37.5,232.3,93.7,288.5,163,288.5z"/>
		<path class="st2" d="M163,325.5L163,325.5c89.7,0,162.5-72.8,162.5-162.5l0,0C325.5,73.3,252.7,0.5,163,0.5l0,0
			C73.3,0.5,0.5,73.3,0.5,163l0,0C0.5,252.7,73.3,325.5,163,325.5z"/>
	</g>
	<g transform="translate(85 85)">
		<path class="st3" d="M51,7h228c6.6,0,12,5.4,12,12v149c0,6.6-5.4,12-12,12H51c-6.6,0-12-5.4-12-12V19C39,12.4,44.4,7,51,7z"/>
		<path class="st4" d="M50,9h230c5.5,0,10,4.5,10,10v150c0,5.5-4.5,10-10,10H50c-5.5,0-10-4.5-10-10V19C40,13.5,44.5,9,50,9z"/>
		<g transform="translate(47 15)">
			<g>
				
					<linearGradient id="b_00000008871483522358206770000015012760522497174946_" gradientUnits="userSpaceOnUse" x1="-563.173" y1="462.4304" x2="-562.173" y2="461.9863" gradientTransform="matrix(237 0 0 -157.94 133472 73080.1641)">
					<stop  offset="0" style="stop-color:#FF8F71"/>
					<stop  offset="1" style="stop-color:#FF3E55"/>
				</linearGradient>
				
					<path id="b_00000097463022333668953790000009099680121307565974_" style="fill:url(#b_00000008871483522358206770000015012760522497174946_);" d="
					M3,0h231c1.7,0,3,1.3,3,3v151.9c0,1.7-1.3,3-3,3H3c-1.7,0-3-1.3-3-3V3C0,1.3,1.3,0,3,0z"/>
			</g>
			<defs>
				<filter id="Adobe_OpacityMaskFilter" filterUnits="userSpaceOnUse" x="-0.2" y="28.4" width="237" height="129.7">
					<feColorMatrix  type="matrix" values="1 0 0 0 0  0 1 0 0 0  0 0 1 0 0  0 0 0 1 0"/>
				</filter>
			</defs>
			
				<mask maskUnits="userSpaceOnUse" x="-0.2" y="28.4" width="237" height="129.7" id="d_00000170272314122707547500000005666997708083190677_">
				<g class="st6">
					<path id="b_00000137105538402931031100000018360649468101996717_" class="st7" d="M3,0h231c1.7,0,3,1.3,3,3v151.9
						c0,1.7-1.3,3-3,3H3c-1.7,0-3-1.3-3-3V3C0,1.3,1.3,0,3,0z"/>
				</g>
			</mask>
			<path class="st8" d="M2.8,28.4h231c1.7,0,3,1.3,3,3v123.7c0,1.7-1.3,3-3,3H2.8c-1.7,0-3-1.3-3-3V31.4
				C-0.2,29.7,1.2,28.4,2.8,28.4z"/>
			<defs>
				
					<filter id="Adobe_OpacityMaskFilter_00000166667706606430259770000004570234533389480854_" filterUnits="userSpaceOnUse" x="33.5" y="17.6" width="170" height="120.6">
					<feColorMatrix  type="matrix" values="1 0 0 0 0  0 1 0 0 0  0 0 1 0 0  0 0 0 1 0"/>
				</filter>
			</defs>
			
				<mask maskUnits="userSpaceOnUse" x="33.5" y="17.6" width="170" height="120.6" id="d_00000142869039791181054510000014379198392263925920_">
				<g style="filter:url(#Adobe_OpacityMaskFilter_00000166667706606430259770000004570234533389480854_);">
					<path id="b_00000121242892304849080140000009743334584588512174_" class="st7" d="M3,0h231c1.7,0,3,1.3,3,3v151.9
						c0,1.7-1.3,3-3,3H3c-1.7,0-3-1.3-3-3V3C0,1.3,1.3,0,3,0z"/>
				</g>
			</mask>
			<g class="st10">
				<g transform="translate(33.478 17.615)">
					<path class="st11" d="M3,0h44c1.7,0,3,1.3,3,3v114.6c0,1.7-1.3,3-3,3H3c-1.7,0-3-1.3-3-3V3C0,1.3,1.3,0,3,0z"/>
					<path class="st11" d="M61.5,0H167c1.7,0,3,1.3,3,3v114.6c0,1.7-1.3,3-3,3H61.5c-1.7,0-3-1.3-3-3V3C58.5,1.3,59.8,0,61.5,0z"/>
					<path class="st12" d="M66.2,6.4h96c1.7,0,3,1.3,3,3v22.3c0,1.7-1.3,3-3,3h-96c-1.7,0-3-1.3-3-3V9.4C63.2,7.7,64.6,6.4,66.2,6.4
						z"/>
					<path class="st12" d="M66.2,40.6h24.3c1.7,0,3,1.3,3,3v22.3c0,1.7-1.3,3-3,3H66.2c-1.7,0-3-1.3-3-3V43.6
						C63.2,41.9,64.6,40.6,66.2,40.6z"/>
					<path class="st12" d="M104,40.6h58.3c1.7,0,3,1.3,3,3v22.3c0,1.7-1.3,3-3,3H104c-1.7,0-3-1.3-3-3V43.6
						C101,41.9,102.3,40.6,104,40.6z"/>
				</g>
			</g>
		</g>
		<g transform="translate(164)" class="st13">
			<path class="st14" d="M0.5,0h5.1c0.3,0,0.5,0.2,0.5,0.5l0,0C6.1,0.8,5.9,1,5.6,1H0.5C0.2,1,0,0.8,0,0.5l0,0C0,0.2,0.2,0,0.5,0z"
				/>
			<path class="st14" d="M8.1,0h0.4C8.8,0,9,0.2,9,0.5l0,0C9,0.8,8.8,1,8.5,1H8.1C7.8,1,7.6,0.8,7.6,0.5l0,0C7.6,0.2,7.8,0,8.1,0z"
				/>
		</g>
		<g transform="translate(0 178)">
			<g>
				<path id="e_00000015344123798682080540000013929592763771030181_" class="st14" d="M0,0"/>
			</g>
			<defs>
				
					<filter id="Adobe_OpacityMaskFilter_00000145741553967937363940000014907853416232361092_" filterUnits="userSpaceOnUse" x="137.2" y="-18.6" width="53.6" height="23.2">
					<feColorMatrix  type="matrix" values="1 0 0 0 0  0 1 0 0 0  0 0 1 0 0  0 0 0 1 0"/>
				</filter>
			</defs>
			
				<mask maskUnits="userSpaceOnUse" x="137.2" y="-18.6" width="53.6" height="23.2" id="f_00000110430759924205166460000014514761958523949751_">
				<g style="filter:url(#Adobe_OpacityMaskFilter_00000145741553967937363940000014907853416232361092_);">
					<path id="e_00000173149521083086494950000005839777087150807712_" class="st14" d="M0,0"/>
				</g>
			</mask>
			<path class="st16" d="M147.2-18.6h33.6c5.5,0,10,4.5,10,10v3.2c0,5.5-4.5,10-10,10h-33.6c-5.5,0-10-4.5-10-10v-3.2
				C137.2-14.1,141.7-18.6,147.2-18.6z"/>
		</g>
		<path class="st17" d="M0,0"/>
	</g>
</g>
</svg>
